<?xml version="1.0" encoding="UTF-8"?><!DOCTYPE svg PUBLIC "-//W3C//DTD SVG 1.1//EN" "http://www.w3.org/Graphics/SVG/1.1/DTD/svg11.dtd"><svg xmlns="http://www.w3.org/2000/svg" xmlns:xlink="http://www.w3.org/1999/xlink"><symbol id="crown" viewBox="0 0 52 24">
<path d="M44.4467 23H7.38286C7.02281 23 6.70276 22.7749 6.58612 22.4403L1.04553 6.55107C0.89515 6.1179 1.1294 5.64729 1.56947 5.49848C1.70443 5.45346 1.84517 5.44208 1.97579 5.46483C2.28042 5.48237 2.56431 5.66341 2.6959 5.95724C3.38082 7.48659 5.81733 12.4239 8.65968 12.4239C8.69487 12.4239 8.73053 12.423 8.76668 12.4211C10.4812 12.3462 13.1625 10.4007 16.2006 1.56302C16.3167 1.22654 16.6373 1 16.9983 1C17.3598 1 17.6803 1.22654 17.7965 1.56302C18.8337 4.5767 22.3104 12.3751 25.9206 12.3751C25.9302 12.3751 25.9394 12.3746 25.9495 12.3746C27.6611 12.3543 30.2928 10.4657 33.111 1.5815C33.2214 1.23507 33.5468 1 33.9155 1H33.9237C34.2958 1.00379 34.6211 1.24644 34.7243 1.59762C35.5856 4.51414 38.6405 12.1533 42.3876 12.4723C44.5768 12.6495 47.0042 10.2135 49.4007 5.4018C49.5954 5.00892 50.0687 4.83215 50.4799 5.00039C50.8901 5.16768 51.0983 5.61981 50.9547 6.03402L45.2439 22.4403C45.1268 22.7754 44.8068 23 44.4467 23ZM7.9844 21.3436H43.8442L47.1445 11.8623C45.5495 13.522 43.93 14.2623 42.2411 14.1229C38.0911 13.768 35.2434 7.888 33.9194 4.43168C31.5807 10.8505 28.9697 13.9959 25.9688 14.0305C25.9524 14.0305 25.937 14.0315 25.9206 14.0315C21.7267 14.0315 18.4891 7.70981 17.0224 4.22268C14.5198 10.7159 11.8341 13.9443 8.84139 14.076C7.30719 14.1343 5.97109 13.3827 4.82055 12.2675L7.9844 21.3436Z" fill="#A07B50" stroke="#1F1C1D" stroke-width="0.8"/>
</symbol><symbol id="Facebook" viewBox="0 0 5 12">
<path d="M1.08072 2.32402C1.08072 2.62642 1.08072 3.97618 1.08072 3.97618H0V5.99646H1.08072V12H3.30076V5.99662H4.79051C4.79051 5.99662 4.93003 5.02792 4.99766 3.96873C4.80376 3.96873 3.30915 3.96873 3.30915 3.96873C3.30915 3.96873 3.30915 2.7934 3.30915 2.58739C3.30915 2.38093 3.5512 2.10322 3.79044 2.10322C4.02923 2.10322 4.53321 2.10322 5 2.10322C5 1.82816 5 0.877753 5 7.21669e-09C4.37685 7.21669e-09 3.66791 7.21669e-09 3.35541 7.21669e-09C1.02585 -0.000139491 1.08072 2.02214 1.08072 2.32402Z"/>
</symbol><symbol id="Twitter" viewBox="0 0 16 12">
<path d="M14.1872 5.335C15.0858 5.25429 15.6953 4.80953 15.9299 4.20606C15.6058 4.42285 14.5995 4.6592 14.0438 4.43411C14.0166 4.29196 13.9861 4.15694 13.9563 4.03504C13.5328 2.34228 12.083 0.978527 10.5639 1.14328C10.6868 1.08925 10.8115 1.03895 10.9358 0.993795C11.103 0.928593 12.084 0.754813 11.9296 0.377812C11.7994 0.046209 10.6007 0.628417 10.375 0.704514C10.673 0.582532 11.1657 0.372709 11.2185 0C10.762 0.0681592 10.314 0.303091 9.96774 0.644697C10.0927 0.498214 10.1876 0.319696 10.2077 0.127571C8.9903 0.974275 8.27916 2.68129 7.70365 4.33716C7.25176 3.86037 6.85123 3.48491 6.49193 3.27642C5.48394 2.68793 4.27872 2.07393 2.38681 1.30932C2.32874 1.99079 2.69638 2.89691 3.75574 3.49948C3.52622 3.46603 3.1065 3.54067 2.77082 3.62819C2.90753 4.40888 3.35399 5.05208 4.56267 5.36311C4.01029 5.4028 3.72483 5.53964 3.46611 5.83459C3.71769 6.37756 4.33158 7.01659 5.43592 6.88541C4.20812 7.46154 4.93529 8.52848 5.93435 8.36936C4.23003 10.2859 1.54298 10.145 0 8.54205C4.02863 14.5185 12.786 12.0765 14.091 6.32005C15.0688 6.32912 15.6436 5.95131 16 5.53478C15.4367 5.63886 14.6201 5.5313 14.1872 5.335Z"/>
</symbol><symbol id="Vkontakte" viewBox="0 0 18 10">
<path d="M17.8396 8.91937C17.7912 8.8405 17.4919 8.20732 16.0518 6.90591C14.5442 5.54315 14.7467 5.76443 16.5626 3.40809C17.6685 1.97303 18.1107 1.09665 17.9723 0.722004C17.8407 0.364883 17.0273 0.459093 17.0273 0.459093L14.3226 0.474429C14.3226 0.474429 14.1223 0.448138 13.9727 0.53468C13.8275 0.620126 13.7341 0.81731 13.7341 0.81731C13.7341 0.81731 13.3055 1.92811 12.7339 2.8724C11.529 4.86505 11.0463 4.97022 10.8494 4.84643C10.3915 4.55832 10.5063 3.68743 10.5063 3.06959C10.5063 1.13828 10.8067 0.333114 9.9201 0.124976C9.62533 0.0559615 9.40932 0.00995199 8.65664 0.00228373C7.69132 -0.00757546 6.87338 0.00557011 6.41097 0.225759C6.1027 0.372551 5.86531 0.700095 6.01044 0.718718C6.18933 0.741723 6.59436 0.824978 6.80925 1.1098C7.08715 1.47678 7.07702 2.30276 7.07702 2.30276C7.07702 2.30276 7.23678 4.57585 6.70462 4.85848C6.33897 5.05238 5.8383 4.65692 4.76385 2.8483C4.21369 1.92263 3.7974 0.898375 3.7974 0.898375C3.7974 0.898375 3.71752 0.707763 3.57464 0.605885C3.40138 0.482098 3.15836 0.442661 3.15836 0.442661L0.586419 0.457997C0.586419 0.457997 0.200516 0.468952 0.0587555 0.632177C-0.0672538 0.777873 0.0486297 1.07803 0.0486297 1.07803C0.0486297 1.07803 2.06253 5.66474 4.34194 7.97727C6.43347 10.097 8.8074 9.95787 8.8074 9.95787H9.88298C9.88298 9.95787 10.2081 9.92282 10.3735 9.74864C10.5265 9.5887 10.5209 9.28854 10.5209 9.28854C10.5209 9.28854 10.4995 7.88306 11.1701 7.67602C11.8305 7.47226 12.6788 9.03439 13.5777 9.6358C14.2573 10.0904 14.7737 9.99074 14.7737 9.99074L17.178 9.95787C17.178 9.95787 18.4359 9.88229 17.8396 8.91937Z"/>
</symbol></svg>